<svg version="1.1" class="bodyset-logo-bg" xmlns="http://www.w3.org/2000/svg" xmlns:xlink="http://www.w3.org/1999/xlink" x="0px" y="0px" viewBox="0 0 595.28 588.19" style="enable-background:new 0 0 595.28 588.19;" xml:space="preserve"> <style type="text/css"> .st0{fill:#E3EFF8;} </style> <g id="icon"> <path class="st0" d="M297.48,585.18l68.44-68.44c32.84-32.91,29.46-83.36-5.89-118.72c-35.85-35.85-86.25-38.36-118.72-5.89 l-68.44,68.44L297.48,585.18z"/> <path class="st0" d="M131.35,419.05l68.38-68.44c32.91-32.84,29.46-83.36-5.83-118.72c-35.85-35.85-86.25-38.36-118.72-5.89 L6.74,294.43L131.35,419.05z"/> <path class="st0" d="M297.48,3.71L229.1,72.16c-32.91,32.91-29.52,83.36,5.83,118.72c35.85,35.85,86.25,38.36,118.72,5.89 l68.44-68.44L297.48,3.71z"/> <path class="st0" d="M463.61,169.84l-68.38,68.44c-32.91,32.91-29.46,83.36,5.83,118.72c35.85,35.85,86.25,38.36,118.72,5.89 l68.44-68.44L463.61,169.84z"/> </g> </svg>