<svg version="1.1" id="Layer_1" xmlns="http://www.w3.org/2000/svg" xmlns:xlink="http://www.w3.org/1999/xlink" x="0px" y="0px" viewBox="0 0 242.957 222.174" enable-background="new 0 0 242.957 222.174"
	 xml:space="preserve">
<path fill="#555D66" d="M214.182,91.92c-3.9,1.098-8.011,1.698-12.263,1.698c-24.979,0-45.229-20.25-45.229-45.229
	c0-9.828,3.146-18.915,8.472-26.334c-15.74-9.449-34.164-14.883-53.859-14.883C53.422,7.172,6.5,54.091,6.5,111.976
	c0,57.881,46.922,104.803,104.802,104.803c57.883,0,104.803-46.922,104.803-104.803C216.107,105.115,215.441,98.413,214.182,91.92z
	 M101.029,104.954c3.104,0,5.719,1.002,7.788,3.035c2.094,2.034,3.087,4.603,3.087,7.737c0,3.172-0.993,5.752-3.087,7.817
	c-2.069,2.084-4.684,3.117-7.788,3.117H81.906v22.44c0,3.127-1.033,5.74-3.08,7.74c-2.059,2.038-4.7,3.045-7.826,3.045
	c-3.165,0-5.727-1.007-7.742-3.045c-2.034-2-3.071-4.625-3.071-7.752v-53.53c0-8.384,2.802-15.34,8.396-20.912
	c5.579-5.594,12.53-8.389,20.886-8.389h11.559c3.104,0,5.719,1.011,7.788,3.056c2.094,2.013,3.087,4.594,3.087,7.711
	c0,3.179-0.993,5.764-3.087,7.841c-2.069,2.062-4.684,3.084-7.788,3.084H89.47c-2.153,0-3.96,0.75-5.402,2.177
	c-1.457,1.477-2.162,3.283-2.162,5.457v9.37H101.029z M165.542,156.842c-2.017,2.038-4.578,3.046-7.752,3.046h-5.449
	c-8.348,0-15.299-2.793-20.903-8.367c-5.562-5.611-8.364-12.578-8.364-20.929V77.083c0-3.163,1.022-5.735,3.04-7.768
	c2.041-2.044,4.619-3.056,7.734-3.056c3.164,0,5.758,1.011,7.84,3.056c2.021,2.033,3.127,4.605,3.127,7.768v53.527
	c0,2.139,0.68,3.947,2.104,5.408c1.449,1.428,3.281,2.164,5.422,2.164h5.449c3.174,0,5.735,1.039,7.752,3.102
	c2.036,2.066,3.031,4.674,3.031,7.816C168.574,152.229,167.579,154.842,165.542,156.842z"/>
<path fill="#555D66" d="M202.244,11.867c-19.982,0-36.143,16.184-36.143,36.143c0,19.989,16.16,36.144,36.143,36.144
	c20.002,0,36.156-16.155,36.156-36.144C238.4,28.051,222.246,11.867,202.244,11.867z M209.214,65.679
	c0,4.144-1.407,6.212-4.237,6.212l-3.009-1.256c-0.745-0.854-1.118-2.09-1.118-3.729V38.883c-5.24,3.998-8.715,6.016-10.521,6.016
	l-2.321-1.051l-1.006-2.377l1.006-2.309c0.636-0.51,1.796-1.144,3.451-1.895c2.515-1.203,4.487-2.411,5.967-3.722
	c1.509-1.287,2.83-2.735,3.954-4.345c1.186-1.594,1.911-2.567,2.26-2.938l1.986-0.563l2.611,1.276
	c0.64,0.835,0.978,1.996,0.978,3.473V65.679z"/>
</svg>
